{
  "accessors": [
    {
      "bufferView": 2,
      "componentType": 5126,
      "count": 8150,
      "max": [
        14.057284355163574,
        12.351036071777344,
        4.543576717376709
      ],
      "min": [
        -14.057284355163574,
        -41.426055908203125,
        -4.171045780181885
      ],
      "type": "VEC3"
    },
    {
      "bufferView": 2,
      "byteOffset": 97800,
      "componentType": 5126,
      "count": 8150,
      "max": [
        0.9995369911193848,
        0.9989838600158691,
        0.9999198317527771
      ],
      "min": [
        -0.9995369911193848,
        -0.9999668598175049,
        -0.9998801946640015
      ],
      "type": "VEC3"
    },
    {
      "bufferView": 1,
      "componentType": 5126,
      "count": 8150,
      "max": [
        0.9889219999313354,
        0.9871230125427246
      ],
      "min": [
        0.5,
        0.01687599904835224
      ],
      "type": "VEC2"
    },
    {
      "bufferView": 1,
      "byteOffset": 65200,
      "componentType": 5126,
      "count": 8150,
      "max": [
        0.9889219999313354,
        0.9871230125427246
      ],
      "min": [
        0.5,
        0.01687599904835224
      ],
      "type": "VEC2"
    },
    {
      "bufferView": 0,
      "componentType": 5125,
      "count": 43608,
      "type": "SCALAR"
    },
    {
      "bufferView": 2,
      "byteOffset": 195600,
      "componentType": 5126,
      "count": 3467,
      "max": [
        12.568415641784668,
        8.501852035522461,
        0.19528162479400635
      ],
      "min": [
        12.324341773986816,
        4.198846340179443,
        -0.17848896980285645
      ],
      "type": "VEC3"
    },
    {
      "bufferView": 2,
      "byteOffset": 237204,
      "componentType": 5126,
      "count": 3467,
      "max": [
        1.0,
        0.9985153675079346,
        0.9999946355819702
      ],
      "min": [
        -1.0,
        -0.999944269657135,
        -0.9999969005584717
      ],
      "type": "VEC3"
    },
    {
      "bufferView": 3,
      "componentType": 5126,
      "count": 3467,
      "max": [
        0.9996377825737,
        0.9915881156921387,
        0.991191029548645,
        1.0
      ],
      "min": [
        -0.9997763633728027,
        -0.9999274015426636,
        -0.9900552034378052,
        1.0
      ],
      "type": "VEC4"
    },
    {
      "bufferView": 1,
      "byteOffset": 130400,
      "componentType": 5126,
      "count": 3467,
      "max": [
        0.9553698301315308,
        0.9713404774665833
      ],
      "min": [
        0.07549422234296799,
        0.04540394991636276
      ],
      "type": "VEC2"
    },
    {
      "bufferView": 1,
      "byteOffset": 158136,
      "componentType": 5126,
      "count": 3467,
      "max": [
        0.9553698301315308,
        0.9713404774665833
      ],
      "min": [
        0.07549422234296799,
        0.04540394991636276
      ],
      "type": "VEC2"
    },
    {
      "bufferView": 0,
      "byteOffset": 174432,
      "componentType": 5125,
      "count": 19956,
      "type": "SCALAR"
    },
    {
      "bufferView": 2,
      "byteOffset": 278808,
      "componentType": 5126,
      "count": 65532,
      "max": [
        14.083861351013184,
        14.86677074432373,
        5.578071594238281
      ],
      "min": [
        -13.958755493164063,
        -41.60902404785156,
        -5.413482189178467
      ],
      "type": "VEC3"
    },
    {
      "bufferView": 2,
      "byteOffset": 1065192,
      "componentType": 5126,
      "count": 65532,
      "max": [
        0.9999961256980896,
        1.0,
        0.9999995231628418
      ],
      "min": [
        -0.9999961256980896,
        -1.0,
        -0.9999994039535522
      ],
      "type": "VEC3"
    },
    {
      "bufferView": 3,
      "byteOffset": 55472,
      "componentType": 5126,
      "count": 65532,
      "max": [
        0.9999998807907104,
        0.9999926686286926,
        0.9999937415122986,
        1.0
      ],
      "min": [
        -0.9999999403953552,
        -0.9999961853027344,
        -0.999995231628418,
        -1.0
      ],
      "type": "VEC4"
    },
    {
      "bufferView": 1,
      "byteOffset": 185872,
      "componentType": 5126,
      "count": 65532,
      "max": [
        0.9541299939155579,
        0.9980400204658508
      ],
      "min": [
        0.0027000000700354576,
        0.0019499999471008778
      ],
      "type": "VEC2"
    },
    {
      "bufferView": 1,
      "byteOffset": 710128,
      "componentType": 5126,
      "count": 65532,
      "max": [
        0.9541299939155579,
        0.9980400204658508
      ],
      "min": [
        0.0027000000700354576,
        0.0019499999471008778
      ],
      "type": "VEC2"
    },
    {
      "bufferView": 1,
      "byteOffset": 1234384,
      "componentType": 5126,
      "count": 65532,
      "max": [
        0.9541299939155579,
        0.9980400204658508
      ],
      "min": [
        0.0027000000700354576,
        0.0019499999471008778
      ],
      "type": "VEC2"
    },
    {
      "bufferView": 0,
      "byteOffset": 254256,
      "componentType": 5125,
      "count": 367017,
      "type": "SCALAR"
    },
    {
      "bufferView": 2,
      "byteOffset": 1851576,
      "componentType": 5126,
      "count": 63911,
      "max": [
        13.063300132751465,
        6.769928455352783,
        5.354677200317383
      ],
      "min": [
        -13.063347816467285,
        -41.586509704589844,
        -6.183071136474609
      ],
      "type": "VEC3"
    },
    {
      "bufferView": 2,
      "byteOffset": 2618508,
      "componentType": 5126,
      "count": 63911,
      "max": [
        0.9999502897262573,
        1.0,
        0.9999814629554749
      ],
      "min": [
        -0.9999502897262573,
        -0.999972403049469,
        -0.9999998211860657
      ],
      "type": "VEC3"
    },
    {
      "bufferView": 3,
      "byteOffset": 1103984,
      "componentType": 5126,
      "count": 63911,
      "max": [
        0.9999428391456604,
        0.999996542930603,
        0.9999966621398926,
        1.0
      ],
      "min": [
        -0.9999897480010986,
        -0.9999857544898987,
        -0.9999963045120239,
        -1.0
      ],
      "type": "VEC4"
    },
    {
      "bufferView": 1,
      "byteOffset": 1758640,
      "componentType": 5126,
      "count": 63911,
      "max": [
        0.9469299912452698,
        0.9414899945259094
      ],
      "min": [
        0.0019499999471008778,
        0.00471000000834465
      ],
      "type": "VEC2"
    },
    {
      "bufferView": 1,
      "byteOffset": 2269928,
      "componentType": 5126,
      "count": 63911,
      "max": [
        0.9469299912452698,
        0.9414899945259094
      ],
      "min": [
        0.0019499999471008778,
        0.00471000000834465
      ],
      "type": "VEC2"
    },
    {
      "bufferView": 1,
      "byteOffset": 2781216,
      "componentType": 5126,
      "count": 63911,
      "max": [
        0.9469299912452698,
        0.9414899945259094
      ],
      "min": [
        0.0019499999471008778,
        0.00471000000834465
      ],
      "type": "VEC2"
    },
    {
      "bufferView": 0,
      "byteOffset": 1722324,
      "componentType": 5125,
      "count": 356379,
      "type": "SCALAR"
    }
  ],
  "asset": {
    "extras": {
      "author": "MR.Sirapop (https://sketchfab.com/Sirapop.Satemrn)",
      "license": "CC-BY-4.0 (http://creativecommons.org/licenses/by/4.0/)",
      "source": "https://sketchfab.com/3d-models/samurai-0ac619b7b276445cb69c1887dd21ede9",
      "title": "Samurai"
    },
    "generator": "Sketchfab-12.67.0",
    "version": "2.0"
  },
  "bufferViews": [
    {
      "buffer": 0,
      "byteLength": 3147840,
      "name": "floatBufferViews",
      "target": 34963
    },
    {
      "buffer": 0,
      "byteLength": 3292504,
      "byteOffset": 3147840,
      "byteStride": 8,
      "name": "floatBufferViews",
      "target": 34962
    },
    {
      "buffer": 0,
      "byteLength": 3385440,
      "byteOffset": 6440344,
      "byteStride": 12,
      "name": "floatBufferViews",
      "target": 34962
    },
    {
      "buffer": 0,
      "byteLength": 2126560,
      "byteOffset": 9825784,
      "byteStride": 16,
      "name": "floatBufferViews",
      "target": 34962
    }
  ],
  "buffers": [
    {
      "byteLength": 11952344,
      "uri": "scene.bin"
    }
  ],
  "images": [
    {
      "uri": "textures/lambert2_baseColor.png"
    },
    {
      "uri": "textures/lambert2_metallicRoughness.png"
    },
    {
      "uri": "textures/blinn5_baseColor.png"
    },
    {
      "uri": "textures/blinn5_metallicRoughness.png"
    },
    {
      "uri": "textures/blinn5_normal.png"
    },
    {
      "uri": "textures/blinn4_baseColor.png"
    },
    {
      "uri": "textures/blinn4_metallicRoughness.png"
    }
  ],
  "materials": [
    {
      "doubleSided": true,
      "name": "lambert2",
      "pbrMetallicRoughness": {
        "baseColorTexture": {
          "index": 0
        },
        "metallicRoughnessTexture": {
          "index": 1
        },
        "roughnessFactor": 0.6
      }
    },
    {
      "doubleSided": true,
      "name": "blinn5",
      "normalTexture": {
        "index": 4
      },
      "pbrMetallicRoughness": {
        "baseColorTexture": {
          "index": 2
        },
        "metallicRoughnessTexture": {
          "index": 3
        }
      }
    },
    {
      "doubleSided": true,
      "name": "blinn4",
      "normalTexture": {
        "index": 4
      },
      "pbrMetallicRoughness": {
        "baseColorTexture": {
          "index": 5
        },
        "metallicRoughnessTexture": {
          "index": 6
        }
      }
    }
  ],
  "meshes": [
    {
      "name": "armor_shogun2:shogun1_lambert2_0",
      "primitives": [
        {
          "attributes": {
            "NORMAL": 1,
            "POSITION": 0,
            "TEXCOORD_0": 2,
            "TEXCOORD_1": 3
          },
          "indices": 4,
          "material": 0,
          "mode": 4
        }
      ]
    },
    {
      "name": "sword_6:polySurface1_blinn5_0",
      "primitives": [
        {
          "attributes": {
            "NORMAL": 6,
            "POSITION": 5,
            "TANGENT": 7,
            "TEXCOORD_0": 8,
            "TEXCOORD_1": 9
          },
          "indices": 10,
          "material": 1,
          "mode": 4
        }
      ]
    },
    {
      "name": "armor_V2_L:Group2_blinn4_0",
      "primitives": [
        {
          "attributes": {
            "NORMAL": 12,
            "POSITION": 11,
            "TANGENT": 13,
            "TEXCOORD_0": 14,
            "TEXCOORD_1": 15,
            "TEXCOORD_2": 16
          },
          "indices": 17,
          "material": 2,
          "mode": 4
        }
      ]
    },
    {
      "name": "armor_V2_L:Group2_blinn4_0",
      "primitives": [
        {
          "attributes": {
            "NORMAL": 19,
            "POSITION": 18,
            "TANGENT": 20,
            "TEXCOORD_0": 21,
            "TEXCOORD_1": 22,
            "TEXCOORD_2": 23
          },
          "indices": 24,
          "material": 2,
          "mode": 4
        }
      ]
    }
  ],
  "nodes": [
    {
      "children": [
        1
      ],
      "matrix": [
        1.0,
        0.0,
        0.0,
        0.0,
        0.0,
        2.220446049250313e-16,
        -1.0,
        0.0,
        0.0,
        1.0,
        2.220446049250313e-16,
        0.0,
        0.0,
        0.0,
        0.0,
        1.0
      ],
      "name": "Sketchfab_model"
    },
    {
      "children": [
        2
      ],
      "matrix": [
        1.0,
        0.0,
        0.0,
        0.0,
        0.0,
        0.0,
        1.0,
        0.0,
        0.0,
        -1.0,
        0.0,
        0.0,
        0.0,
        0.0,
        0.0,
        1.0
      ],
      "name": "895a5030d7e14cfeb18ea6a0f0c8c82e.fbx"
    },
    {
      "children": [
        3,
        5,
        7
      ],
      "name": "RootNode"
    },
    {
      "children": [
        4
      ],
      "name": "armor_shogun2:shogun1"
    },
    {
      "mesh": 0,
      "name": "armor_shogun2:shogun1_lambert2_0"
    },
    {
      "children": [
        6
      ],
      "matrix": [
        -8.136516141589095,
        -1.6696271192074026,
        1.4343055657790873,
        0.0,
        -0.7025881509152513,
        -3.235198281929328,
        -7.751622027830857,
        0.0,
        2.0859666975796056,
        -7.602211484493593,
        2.9837737141378695,
        0.0,
        109.98529052734375,
        30.966495513916016,
        25.041831970214844,
        1.0
      ],
      "name": "sword_6:polySurface1"
    },
    {
      "mesh": 1,
      "name": "sword_6:polySurface1_blinn5_0"
    },
    {
      "children": [
        8,
        9
      ],
      "name": "armor_V2_L:Group2"
    },
    {
      "mesh": 2,
      "name": "armor_V2_L:Group2_blinn4_0"
    },
    {
      "mesh": 3,
      "name": "armor_V2_L:Group2_blinn4_0"
    }
  ],
  "samplers": [
    {
      "magFilter": 9729,
      "minFilter": 9987,
      "wrapS": 10497,
      "wrapT": 10497
    }
  ],
  "scene": 0,
  "scenes": [
    {
      "name": "Sketchfab_Scene",
      "nodes": [
        0
      ]
    }
  ],
  "textures": [
    {
      "sampler": 0,
      "source": 0
    },
    {
      "sampler": 0,
      "source": 1
    },
    {
      "sampler": 0,
      "source": 2
    },
    {
      "sampler": 0,
      "source": 3
    },
    {
      "sampler": 0,
      "source": 4
    },
    {
      "sampler": 0,
      "source": 5
    },
    {
      "sampler": 0,
      "source": 6
    }
  ]
}
